<svg id="Airport_Virus_Screening" height="250" viewBox="0 0 512 512" width="250" xmlns="http://www.w3.org/2000/svg" data-name="Airport Virus Screening"><g id="Filled"><path d="m64 408h384v96h-384z" fill="#efebe8"/><g fill="#b0ed98"><circle cx="112" cy="456" r="16"/><circle cx="176" cy="456" r="16"/><circle cx="240" cy="456" r="16"/></g><rect fill="#c6bab3" height="400" rx="56" width="496" x="8" y="8"/><rect fill="#afefde" height="432" rx="24" transform="matrix(0 1 -1 0 464 -48)" width="336" x="88" y="-8"/><path d="m448 40h-384a24.028 24.028 0 0 0 -24 24v240.813c89.693-149.347 259.269-233.227 432-214.413v-26.4a24.028 24.028 0 0 0 -24-24z" fill="#96e0d7"/><path d="m407.926 256-63.926-16a32 32 0 0 1 -64 0l-63.926 16a40.978 40.978 0 0 0 -32.074 40v80h256v-80a40.978 40.978 0 0 0 -32.074-40z" fill="#f27c6d"/><path d="m373.563 153.48a64.751 64.751 0 0 0 2.278-12.791c-21.229-30.272-31.921 2.982-63.841 3.146s-42.612-33.416-63.84-3.147a64.745 64.745 0 0 0 2.277 12.792c-9.222 5.175-2.68 15.73-2.373 19.929 1.624 6.393 9.209 10.9 15.936 10.9 14.934 47.578 80.849 48.269 96 0 6.707 0 14.31-4.493 15.936-10.9.306-4.183 6.851-14.753-2.373-19.929z" fill="#ffdfc5"/><path d="m312 272a32 32 0 0 0 32-32v-40h-64v40a32 32 0 0 0 32 32z" fill="#ffbeaa"/><path d="m136 252.292v-148.292h-32v148.292a32 32 0 1 0 32 0z" fill="#f27c6d"/><path d="m312 143.835c31.92-.164 42.612-33.418 63.841-3.146 2.738-36.15-25.859-68.689-63.841-68.689-38.049 0-66.572 32.578-63.84 68.688 21.228-30.269 31.92 3.312 63.84 3.147z" fill="#68676b"/><path d="m125.9 448.1a36.175 36.175 0 0 1 -21.8 21.8 15.985 15.985 0 0 0 21.8-21.8z" fill="#96ea8c"/><path d="m253.9 448.1a36.175 36.175 0 0 1 -21.8 21.8 15.985 15.985 0 0 0 21.8-21.8z" fill="#96ea8c"/><path d="m189.9 448.1a36.175 36.175 0 0 1 -21.8 21.8 15.985 15.985 0 0 0 21.8-21.8z" fill="#96ea8c"/><path d="m407.926 256-5.372-1.344a256.981 256.981 0 0 1 -110.573 121.344h148.019v-80a40.978 40.978 0 0 0 -32.074-40z" fill="#ed6464"/><circle cx="272" cy="304" fill="#ffa596" r="24"/><circle cx="316" cy="332" fill="#ffa596" r="12"/><path d="m373.563 153.48a64.751 64.751 0 0 0 2.278-12.791c-4.444-6.338-8.426-9.884-12.238-11.539a156.385 156.385 0 0 1 -90.689 72.275c23.37 29.7 74.041 24.441 87.086-17.117 6.707 0 14.31-4.493 15.936-10.9.306-4.182 6.851-14.752-2.373-19.928z" fill="#ffd5c7"/></g><g id="Outline"><path d="m448 0h-384a64.072 64.072 0 0 0 -64 64v288a64.081 64.081 0 0 0 56 63.482v80.518h-16c-10.578 0-10.591 16 0 16h432c10.578 0 10.591-16 0-16h-16v-80.518a64.081 64.081 0 0 0 56-63.482v-288a64.072 64.072 0 0 0 -64-64zm48 352a48.055 48.055 0 0 1 -48 48h-40c-10.578 0-10.591 16 0 16h32v80h-368v-80h272c10.578 0 10.591-16 0-16h-280a48.055 48.055 0 0 1 -48-48v-288a48.055 48.055 0 0 1 48-48h384a48.055 48.055 0 0 1 48 48z"/><path d="m448 32h-288c-10.578 0-10.591 16 0 16h288a16.019 16.019 0 0 1 16 16v288a16.019 16.019 0 0 1 -16 16h-384a16.019 16.019 0 0 1 -16-16v-288a16.019 16.019 0 0 1 16-16h32c10.578 0 10.591-16 0-16h-32a32.036 32.036 0 0 0 -32 32v288a32.036 32.036 0 0 0 32 32h384a32.036 32.036 0 0 0 32-32v-288a32.036 32.036 0 0 0 -32-32z"/><path d="m112 432a24 24 0 1 0 24 24 24.028 24.028 0 0 0 -24-24zm-8 24a8 8 0 0 1 16 0c0 10.588-16 10.575-16 0z"/><path d="m176 432a24 24 0 1 0 24 24 24.028 24.028 0 0 0 -24-24zm-8 24a8 8 0 0 1 16 0c0 10.588-16 10.575-16 0z"/><path d="m240 432a24 24 0 1 0 24 24 24.028 24.028 0 0 0 -24-24zm-8 24c0-10.588 16-10.575 16 0s-16 10.575-16 0z"/><path d="m296 464h112a8 8 0 0 0 0-16h-112c-10.578 0-10.591 16 0 16z"/><path d="m104 96a8 8 0 0 0 -8 8v144.011c-30.747 23.129-14.151 71.989 24 71.989 38.176 0 54.733-48.871 24-71.989v-144.011a8 8 0 0 0 -8-8zm16 208c-24.356 0-33.273-32.471-11.993-44.783 7.595-4.4 2.5-4.478 3.993-147.217h16c1.486 142.354-3.595 142.825 3.993 147.217 21.249 12.294 12.407 44.783-11.993 44.783z"/><path d="m80 136c0-10.577-16-10.592-16 0s16 10.592 16 0z"/><path d="m80 168c0-10.577-16-10.592-16 0 0 10.577 16 10.592 16 0z"/><path d="m80 200c0-10.577-16-10.592-16 0 0 10.577 16 10.592 16 0z"/><path d="m80 232c0-10.577-16-10.592-16 0 0 10.577 16 10.592 16 0z"/><path d="m112 280c0 10.577 16 10.592 16 0s-16-10.592-16 0z"/><path d="m128 48c10.577 0 10.592-16 0-16-10.577 0-10.592 16 0 16z"/><path d="m384 408c0-10.577-16-10.592-16 0s16 10.592 16 0z"/><path d="m214.231 248.215a48.676 48.676 0 0 0 -38.231 47.785v48c0 10.578 16 10.591 16 0v-48c0-14.382 9.08-28.126 26.017-32.239l55.233-13.825c10.24 39.907 67.242 39.977 77.5 0 68.417 17.123 53.163 13.36 55.44 13.874a32.773 32.773 0 0 1 25.81 32.19v48c0 10.578 16 10.591 16 0v-48a48.676 48.676 0 0 0 -38.231-47.785l-57.769-14.459v-21.439a59.885 59.885 0 0 0 13.9-20.76c7.893-1.968 15.646-7.713 17.794-16.182 2.649-8.912 4.933-17.844-1.168-24.857a72.043 72.043 0 0 0 -13.1-57.932c-45.767-60.547-143.535-17.227-127.94 57.932-6.374 7.328-3.3 17.27-2 21.447.6 1.933 1.974 15.44 18.631 19.592a59.727 59.727 0 0 0 13.883 20.713v21.486zm151.882-126.687c-10.527-4.252-20.076 1.071-28.286 5.658-20.215 11.295-30.9 11.778-51.794.064-8.171-4.581-17.676-9.895-28.156-5.691 14.723-54.894 93.28-55.619 108.236-.031zm-96.239 54.78c-1.012-.187-11.628 1.411-13.952-4.547-.684-4.507-3.77-10.07-1.57-11.3l5.5-3.088c-1.2-4.577-2.6-8.058-3.409-14.437 3.5-4.474 6.581-6.8 9.189-6.895 12.022-.425 33.361 31.176 80 5.116 11.042-6.168 14.188-8.13 21.924 1.778-.824 6.471-2.251 10.021-3.41 14.438 7.052 3.958 7.359 2.561 5.094 9.875a31.477 31.477 0 0 0 -1.162 4.518c-2.34 6-12.781 4.329-13.952 4.546-.395.523-7.253 35.943-41.988 35.943-34.867-.004-41.917-35.415-42.264-35.947zm66.126 46.873v16.819a24 24 0 0 1 -48 0v-16.878a58.977 58.977 0 0 0 48 .059z"/><path d="m384 311.68v32.32c0 10.578 16 10.591 16 0v-32.32a8 8 0 0 0 -16 0z"/><path d="m224 311.68v32.32c0 10.578 16 10.591 16 0v-32.32c0-10.58-16-10.591-16 0z"/></g></svg>