<svg id="Layer_1_1_" enable-background="new 0 0 64 64" height="512" viewBox="0 0 64 64" width="512" xmlns="http://www.w3.org/2000/svg"><path d="m37 45h-2c0 3.64-2.169 6.93-5.515 8.364l-1.485.636-5-6v13h16v-15.651c-.626-.222-1.298-.349-2-.349z" fill="#f5ee6c"/><path d="m18 54-1.485-.636c-3.346-1.434-5.515-4.724-5.515-8.364h-2c-3.314 0-6 2.686-6 6v10h20v-13z" fill="#f5ee6c"/><path d="m16.515 53.364 1.485.636 5-6h-4c-1.657 0-3-1.343-3-3h-5c0 3.64 2.169 6.93 5.515 8.364z" fill="#fca947"/><path d="m27 48h-4l5 6 1.485-.636c3.346-1.434 5.515-4.724 5.515-8.364h-5c0 1.657-1.343 3-3 3z" fill="#fca947"/><path d="m33.123 21c-1.835 0-3.435-1.249-3.881-3.03l-2.242-7.97-2.053 7.213c-.557 2.225-2.557 3.787-4.851 3.787h-8.096v6c0 6.075 4.925 11 11 11s11-4.925 11-11v-6z" fill="#fce0b9"/><path d="m21 26c0-1.105-.895-2-2-2h-4c-1.105 0-2 .895-2 2s.895 2 2 2h4c1.105 0 2-.895 2-2zm-3 1c-.552 0-1-.448-1-1s.448-1 1-1 1 .448 1 1-.448 1-1 1z" fill="#71caf0"/><path d="m27 28h4c1.105 0 2-.895 2-2s-.895-2-2-2h-4c-1.105 0-2 .895-2 2s.895 2 2 2zm1-3c.552 0 1 .448 1 1s-.448 1-1 1-1-.448-1-1 .448-1 1-1z" fill="#71caf0"/><circle cx="18" cy="26" fill="#fff" r="1"/><circle cx="28" cy="26" fill="#fff" r="1"/><path d="m60 3h-18c-.552 0-1 .448-1 1v14c0 .552.448 1 1 1h4.6l-.6 4 4.5-4h9.5c.552 0 1-.448 1-1v-14c0-.552-.448-1-1-1z" fill="#71caf0"/><path d="m12 37h6 .437c-3.795-1.735-6.437-5.555-6.437-10v-6h8.096c2.294 0 4.294-1.562 4.851-3.787l2.053-7.213 2.243 7.97c.445 1.781 2.045 3.03 3.881 3.03h.876v6c0 4.445-2.642 8.265-6.437 10h.437 6c2.761 0 5-2.239 5-5v-13c0-9.093-7.585-16.414-16.773-15.982-8.606.405-15.227 7.819-15.227 16.434v12.548c0 2.761 2.239 5 5 5z" fill="#332813"/><path d="m28 36.79c-1.501.768-3.198 1.21-5 1.21s-3.499-.442-5-1.21v8.21h-2c0 1.657 1.343 3 3 3h4 4c1.657 0 3-1.343 3-3h-2z" fill="#fce0b9"/><path d="m43 39h14v4h-14z" fill="#46afda"/><path d="m39 35v8.341 17.659h22v-26zm4 4h14v4h-14z" fill="#878787"/><path d="m39 35v8.341 17.659h22c-10.907-2.424-19.3-11.149-21.298-22.142z" fill="#737373"/><path d="m33.123 21c-1.835 0-3.435-1.249-3.881-3.03l-2.242-7.97-2.053 7.213c-.557 2.225-2.557 3.787-4.851 3.787h-8.096v2h8.096c2.294 0 4.294-1.562 4.851-3.787l2.053-7.213 2.243 7.97c.445 1.781 2.045 3.03 3.881 3.03h.876v-2z" fill="#f5cba1"/><path d="m28 36.79c-1.501.768-3.198 1.21-5 1.21s-3.499-.442-5-1.21v3.29l10.127 7.697c1.098-.446 1.873-1.519 1.873-2.777h-2z" fill="#f5cba1"/><path d="m12 27v3c0 2.664-.577 5.099 1 7h5 .437c-3.795-1.735-6.437-5.555-6.437-10z" fill="#211a0c"/><path d="m22.227 3.018c-8.606.405-15.227 7.819-15.227 16.434v3c0-8.615 6.621-16.028 15.227-16.434 9.188-.432 16.773 6.889 16.773 15.982v-3c0-9.093-7.585-16.414-16.773-15.982z" fill="#47381b"/><path d="m34 27c0 4.445-2.642 8.265-6.437 10h.437 5c1.577-1.901 1-4.336 1-7z" fill="#211a0c"/><path d="m23 48-5 6-1.485-.636c-3.346-1.434-5.515-4.724-5.515-8.364h-2c-.171 0-.34.012-.507.026.69 4.425 3.604 8.254 7.807 10.055l2.144.919 4.556-5.467z" fill="#bab552"/><path d="m37 45h-2c0 3.64-2.169 6.93-5.515 8.364l-1.485.636-5-6v2.533l4.556 5.467 2.145-.919c4.196-1.798 7.108-5.619 7.803-10.036-.168-.015-.332-.045-.504-.045z" fill="#bab552"/><path d="m57.041 17.235c-7.354-1.416-13.224-6.969-15.041-14.235-.552 0-1 .448-1 1v14c0 .552.448 1 1 1h4.6l-.6 4 4.5-4h9.5c.552 0 1-.448 1-1 0 0-1.683-.327-3.959-.765z" fill="#62b0d1"/><path d="m18 27.75c-.965 0-1.75-.785-1.75-1.75s.785-1.75 1.75-1.75 1.75.785 1.75 1.75-.785 1.75-1.75 1.75zm0-2c-.138 0-.25.112-.25.25 0 .275.5.275.5 0 0-.138-.112-.25-.25-.25z"/><path d="m28 27.75c-.965 0-1.75-.785-1.75-1.75s.785-1.75 1.75-1.75 1.75.785 1.75 1.75-.785 1.75-1.75 1.75zm0-2c-.138 0-.25.112-.25.25 0 .275.5.275.5 0 0-.138-.112-.25-.25-.25z"/><path d="m23 34.75c-2.067 0-3.75-1.683-3.75-3.75h1.5c0 1.24 1.01 2.25 2.25 2.25s2.25-1.01 2.25-2.25h1.5c0 2.067-1.683 3.75-3.75 3.75z"/><path d="m61 34h-21.35c.223-.627.35-1.298.35-2v-13c0-4.692-1.87-9.062-5.267-12.302-3.394-3.238-7.846-4.889-12.553-4.678-9.074.427-16.18 8.084-16.18 17.432v12.548c0 3.309 2.691 6 6 6h5v6h-1-7c-3.859 0-7 3.141-7 7v10c0 .553.447 1 1 1h36 22c.553 0 1-.447 1-1v-26c0-.553-.447-1-1-1zm-40.904-12c2.759 0 5.152-1.869 5.813-4.514l1.085-3.813 1.278 4.539c.547 2.19 2.482 3.722 4.728 3.778v1.791c-.532-.48-1.229-.78-2-.78h-4c-1.302 0-2.402.839-2.816 2h-2.369c-.414-1.161-1.514-2-2.816-2h-4c-.771 0-1.468.301-2 .78v-1.781zm11.904 4c0 .552-.448 1-1 1h-4c-.552 0-1-.448-1-1s.448-1 1-1h4c.552 0 1 .448 1 1zm-12 0c0 .552-.448 1-1 1h-4c-.552 0-1-.448-1-1s.448-1 1-1h4c.552 0 1 .448 1 1zm-5 3h4c1.302 0 2.402-.839 2.816-2h2.369c.414 1.161 1.514 2 2.816 2h4c.727 0 1.386-.271 1.906-.703-.641 4.902-4.834 8.703-9.907 8.703s-9.266-3.801-9.906-8.703c.52.432 1.179.703 1.906.703zm4 16v-6.7c1.253.445 2.596.7 4 .7s2.747-.255 4-.7v6.7c0 .553.447 1 1 1h.722c-.347.595-.985 1-1.722 1h-8c-.737 0-1.375-.405-1.722-1h.722c.553 0 1-.447 1-1zm8 4c1.86 0 3.429-1.276 3.873-3h3.053c-.351 2.833-2.164 5.299-4.834 6.444l-.801.343-3.155-3.787zm.231 5.641c.283.339.758.452 1.162.278l1.485-.637c3.408-1.46 5.686-4.647 6.047-8.282h1.075c.334 0 .668.046 1 .116v13.884h-14v-9.238zm9.769-10.641h-7-1v-6h5c1.538 0 2.937-.586 4-1.54v7.627c-.332-.049-.665-.087-1-.087zm-29-12v-12.548c0-8.278 6.27-15.058 14.273-15.435 4.14-.196 8.083 1.271 11.079 4.128 2.998 2.86 4.648 6.714 4.648 10.855v13c0 2.206-1.794 4-4 4h-3.089c2.501-2.201 4.089-5.415 4.089-9v-5h1v-2h-2.877c-1.379 0-2.576-.935-2.918-2.301l-2.242-7.97c-.121-.43-.514-.728-.961-.729-.001 0-.001 0-.002 0-.447 0-.84.297-.962.727l-2.061 7.244c-.446 1.783-2.042 3.029-3.881 3.029h-10.096v2h1v5c0 3.585 1.588 6.799 4.089 9h-3.089c-2.206 0-4-1.794-4-4zm11 17h1.864l-3.155 3.787-.801-.343c-2.671-1.145-4.483-3.612-4.834-6.444h3.053c.444 1.724 2.013 3 3.873 3zm-15 2c0-2.757 2.243-5 5-5h1.074c.361 3.635 2.639 6.823 6.047 8.282l1.485.637c.127.055.261.081.394.081.29 0 .574-.127.769-.359l3.231-3.878v9.237h-18zm56 9h-20v-24h20z"/><path d="m43 44h14c.553 0 1-.447 1-1v-4c0-.553-.447-1-1-1h-14c-.553 0-1 .447-1 1v4c0 .553.447 1 1 1zm1-4h12v2h-12z"/><path d="m42 46h4v2h-4z"/><path d="m48 46h4v2h-4z"/><path d="m54 46h4v2h-4z"/><path d="m42 50h4v2h-4z"/><path d="m48 50h4v2h-4z"/><path d="m54 50h4v2h-4z"/><path d="m42 54h4v2h-4z"/><path d="m48 54h4v2h-4z"/><path d="m54 54h4v2h-4z"/><path d="m60 2h-18c-1.103 0-2 .897-2 2v14c0 1.103.897 2 2 2h3.438l-.428 2.852c-.063.416.143.827.513 1.027.151.081.314.121.477.121.239 0 .477-.086.664-.253l4.216-3.747h9.12c1.103 0 2-.897 2-2v-14c0-1.103-.897-2-2-2zm0 16h-9.5c-.245 0-.481.09-.664.253l-2.438 2.166.19-1.271c.043-.288-.042-.58-.231-.801-.19-.22-.466-.347-.757-.347h-4.6v-14h18z"/><path d="m49.219 9.086 3.539.884c.257.066.529.024.757-.112l5-3-1.029-1.715-4.645 2.787-3.599-.9c-.291-.074-.602-.01-.842.17l-4 3 1.199 1.6z"/><path d="m44 13h2v3h-2z"/><path d="m50 11h2v5h-2z"/><path d="m56 9h2v7h-2z"/></svg>