<svg height="100" viewBox="0 0 512 512" width="100" xmlns="http://www.w3.org/2000/svg"><g id="N95_Mask" data-name="N95 Mask"><g id="Filled"><path d="m256 144c-63.978 0-128.02 56-168 56v112c.1.047 95.88 56 168 56 69.6 0 158.5-51.642 168-56v-112c-40.012 0-103.986-56-168-56z" fill="#c09fde"/><path d="m256 368c69.6 0 158.5-51.642 168-56v-112c-18.276 0-41.552-11.683-67.546-24.377a268.216 268.216 0 0 1 -131.954 189.368 182.078 182.078 0 0 0 31.5 3.009z" fill="#bc85dd"/><circle cx="336" cy="280" fill="#ffdfc5" r="32"/><circle cx="153.143" cy="242.286" fill="#d2c1e8" r="25.143"/><circle cx="203.429" cy="267.429" fill="#d2c1e8" r="12.571"/><path d="m362.265 261.729a80.214 80.214 0 0 1 -44.536 44.536 31.993 31.993 0 0 0 44.536-44.536z" fill="#ffd5c7"/><g fill="#fff7e6"><circle cx="336" cy="264" r="16"/><circle cx="312" cy="288" r="8"/></g></g><g id="Outline"><path d="m345 200c-30.117 0-54.256-32-89-32s-58.872 32-89 32c-12.925 0-18.4 37.032 49.142-1.224 34.752-19.683 44.695-19.833 79.712 0 14.952 8.468 30.41 17.224 49.146 17.224 10.576 0 10.589-16 0-16z"/><path d="m448 192h-24c-41.337 0-109.769-65.257-185.828-54.725-10.472 1.452-8.309 17.277 2.195 15.85 66.484-9.219 129.606 48.183 175.633 54.322v99.874c-17.844 9.855-92.264 49.071-152 52.442v-127.763c0-10.578-16-10.591-16 0v127.763c-59.736-3.371-134.156-42.587-152-52.442v-99.893c24.245-3.332 53.376-20.746 85.92-35.48 9.639-4.364 3.05-18.941-6.6-14.576-33.901 15.35-66.132 34.628-87.32 34.628h-24a64 64 0 0 0 0 128h21.868c14.3 8.117 101.567 56 170.132 56s155.833-47.883 170.132-56h21.868a64 64 0 0 0 0-128zm-368 112h-16a48 48 0 0 1 0-96h16zm368 0h-16v-96h16a48 48 0 0 1 0 96z"/><path d="m216 152c0-10.577-16-10.592-16 0 0 10.577 16 10.592 16 0z"/><path d="m296 280a40 40 0 1 0 40-40 40.045 40.045 0 0 0 -40 40zm64 0a24 24 0 1 1 -24-24 24.028 24.028 0 0 1 24 24z"/><path d="m352 136v-12.687c15.6 13.8 18.857 23.48 27.062 20.078 8.406-3.483 3.579-12.791 4.938-39.391 0-10.578-16-10.591-16 0v12.687c-15.578-13.794-18.875-23.47-27.062-20.078-8.406 3.483-3.579 12.791-4.938 39.391 0 10.578 16 10.591 16 0z"/><path d="m408 160c-10.578 0-10.591 16 0 16h32a8 8 0 0 0 8-8v-64a8 8 0 0 0 -8-8h-32a8 8 0 0 0 -8 8v32a8 8 0 0 0 8 8h24v16zm8-32v-16h16v16z"/><path d="m488 128h-8v-16h24c10.578 0 10.591-16 0-16h-32a8 8 0 0 0 -8 8v32a8 8 0 0 0 8 8h16c10.588 0 10.575 16 0 16h-16c-10.578 0-10.591 16 0 16h16a24 24 0 0 0 0-48z"/></g></g></svg>