<svg height="250" viewBox="0 0 512 512" width="250" xmlns="http://www.w3.org/2000/svg"><g id="Virus_Quarantine" data-name="Virus Quarantine"><g id="Filled"><path d="m72 400h96v32h-96z" fill="#ad935c"/><path d="m144 208v32h32a32 32 0 0 0 32-32v-24h-40a24 24 0 0 0 -24 24z" fill="#ffdecf"/><path d="m168 184h48s24-24 0-48c-16 16-40.5 0-56 0a56 56 0 0 0 -56 56c0 25.366 16.871 41.114 40 48v-32a24 24 0 0 1 24-24z" fill="#68676b"/><path d="m200 472h32v-94a18 18 0 0 0 -18-18h-110v16a24 24 0 0 0 24 24h72z" fill="#e2dbd5"/><path d="m144 240c-24 8-40 32-40 64v56h72v-120z" fill="#afefde"/><path d="m176 271.894a132.2 132.2 0 0 1 -72 51.116v36.99h72z" fill="#96e0d7"/><path d="m200 472h24a32 32 0 0 1 32 32 0 0 0 0 1 0 0h-56a0 0 0 0 1 0 0v-32a0 0 0 0 1 0 0z" fill="#68676b"/><path d="m235.272 305.237a16 16 0 0 0 -21.8-6.059l-18.622 10.522 14.329 28.659 33.964-19.192z" fill="#ffdecf"/><path d="m185.611 314.921-19.678-34.821a16 16 0 0 0 -21.8-6.059 16 16 0 0 0 -6.059 21.8l26.565 47.014a18 18 0 0 0 24.526 6.816l20.015-11.309-14.33-28.662z" fill="#afefde"/><path d="m214 360h-25.329a87.949 87.949 0 0 1 -24.279 40h35.608v72h32v-94a18 18 0 0 0 -18-18z" fill="#d4ccc7"/><path d="m168 432v-32h-31a112.512 112.512 0 0 1 -27.743 32z" fill="#967f50"/><path d="m144 208v32h22.672a80.278 80.278 0 0 1 41.328-41.328v-14.672h-40a24 24 0 0 0 -24 24z" fill="#ffcdbe"/><path d="m168 184h48s24-24 0-48c-8.295 8.295-18.874 7.984-29.3 5.766a94.572 94.572 0 0 1 -81.141 62.893c4.67 18.041 19.441 29.684 38.441 35.341v-32a24 24 0 0 1 24-24z" fill="#58575b"/><circle cx="152" cy="152" fill="#8a8a8c" r="16"/><circle cx="128" cy="176" fill="#8a8a8c" r="8"/><path d="m376 360h32v144h-32z" fill="#ad935c"/><path d="m232 360h32v144h-32z" fill="#ad935c"/><path d="m400 184h-96a24 24 0 0 0 -24 24v120h144v-120a24 24 0 0 0 -24-24z" fill="#e2dbd5"/><path d="m208 328h232v32h-232z" fill="#ad935c"/><path d="m405.49 184.638a180.334 180.334 0 0 1 -125.49 113.918v29.444h144v-120a24 24 0 0 0 -18.51-23.362z" fill="#d4ccc7"/><path d="m232 387.682a79.927 79.927 0 0 1 32 19.218v-46.9h-32z" fill="#7f6c43"/><path d="m376 387.682a79.927 79.927 0 0 1 32 19.218v-46.9h-32z" fill="#7f6c43"/><g fill="#efebe8"><circle cx="304" cy="208" r="16"/><circle cx="344" cy="200" r="8"/></g></g><g id="Outline"><path d="m504 496h-24v-396.507l20.222 7.489a8 8 0 1 0 5.556-15c-260.778-95.827-247.278-93.44-252.557-91.482l-57.8 21.41c-9.914 3.674-4.386 18.675 5.558 15l55.021-20.379 208 77.036v402.433h-416v-402.434l92.969-34.434c9.917-3.672 4.375-18.685-5.557-15l-129.19 47.847c-9.923 3.673-4.378 18.678 5.556 15l20.222-7.486v396.507h-24c-10.578 0-10.591 16 0 16h496a8 8 0 0 0 0-16z"/><path d="m242.236 301.3a23.985 23.985 0 0 0 -32.7-9.088l-20.9 11.807-15.736-27.859a24 24 0 1 0 -41.789 23.613l26.565 47.014a25.823 25.823 0 0 0 15.675 12.26 25.832 25.832 0 0 0 19.752-2.414l36.512-20.633h202.385v16h-216a8 8 0 0 0 0 16h8v104a8 8 0 0 0 16 0v-104h16v104a8 8 0 0 0 16 0v-104h96v104c0 10.578 16 10.591 16 0v-104h16v104c0 10.578 16 10.591 16 0v-104h24a8 8 0 0 0 8-8v-32c0-10.806-13.641-7.472-16-8v-112a32.036 32.036 0 0 0 -32-32h-96a32.036 32.036 0 0 0 -32 32v48c0 10.578 16 10.591 16 0v-48a16.019 16.019 0 0 1 16-16h96a16.019 16.019 0 0 1 16 16v112h-96c-.01-32.113.022-48.152-.04-48.788l45.422-41.292a8 8 0 1 0 -10.764-11.84l-88 80c-7.833 7.124 2.929 18.956 10.764 11.84l26.618-24.198v34.278h-52.908c.447-4.267-1.887-5.533-8.856-18.7zm-57.007 41.4a10 10 0 0 1 -13.626-3.787l-26.565-47.013a8 8 0 0 1 6.953-11.938 8.038 8.038 0 0 1 2.155.3 7.946 7.946 0 0 1 4.822 3.771l19.678 34.825a8 8 0 0 0 10.9 3.03c27.054-14.478 28.394-18.021 33.938-16.488 4.863 1.352 5.391 5.628 8.758 10.738z"/><path d="m125.1 240.722c-18.288 13.033-29.1 35.864-29.1 63.278v72a31.8 31.8 0 0 0 4.305 16h-20.305v-128a8 8 0 0 0 -16 0v168a8 8 0 0 0 8 8h8v32a8 8 0 0 0 16 0v-32h48v32a8 8 0 0 0 16 0v-32h8a8 8 0 0 0 8-8v-24h16v64a8 8 0 0 0 16 0v-72a8 8 0 0 0 -8-8h-72a16.019 16.019 0 0 1 -16-16v-8h32a8 8 0 0 0 0-16h-32v-48c0-27.695 13.231-49.311 34.53-56.41a8.108 8.108 0 0 0 1.05-.445c.063-.031.125-.062.187-.1a8.061 8.061 0 0 0 .994-.622l.021-.014c.029-.021.053-.047.082-.069.2-.151.387-.31.567-.477.058-.054.113-.109.169-.163.152-.151.3-.306.438-.467.058-.067.115-.133.17-.2.133-.164.257-.334.376-.507.046-.067.095-.132.139-.2a8.084 8.084 0 0 0 .416-.722l.012-.022a7.772 7.772 0 0 0 .341-.79c.028-.075.05-.152.076-.228.067-.2.129-.4.181-.6.022-.089.041-.178.061-.267.044-.2.08-.406.109-.613.011-.084.023-.167.032-.252.024-.231.037-.464.041-.7 0-.045.008-.089.008-.134v-31.998a16.019 16.019 0 0 1 16-16h32v16a24.028 24.028 0 0 1 -24 24 8 8 0 0 0 -8 8v8a8 8 0 0 0 16 0v-.8a40.071 40.071 0 0 0 32-39.2v-16a8 8 0 0 0 5.657-2.343c29.246-29.284 1.173-71.794-11.314-59.314-7.165 7.165-17.143 5.117-31.55 1.177-74.669-20.44-113.261 75.699-53.693 109.202zm2.9 167.278h32v16h-80v-16zm32-264c12.139 0 35.64 13.728 54.713 2.972 8.209 12.563 1.469 24.1-2.353 29.028h-44.36a32.036 32.036 0 0 0 -32 32v20.4c-44.274-21.27-22.392-84.4 24-84.4z"/><path d="m168 48c10.577 0 10.592-16 0-16-10.577 0-10.592 16 0 16z"/></g></g></svg>