<svg height="100" viewBox="0 0 512 512" width="100" xmlns="http://www.w3.org/2000/svg"><g id="Virus_Spread" data-name="Virus Spread"><g id="Filled"><path d="m152 344a24 24 0 0 0 24-24v-32a80 80 0 0 0 -80-80 80 80 0 0 0 -80 80v32a24 24 0 0 0 24 24z" fill="#68676b"/><path d="m147.5 226.8a164.125 164.125 0 0 1 -130.56 99.847 24.005 24.005 0 0 0 23.06 17.353h112a24 24 0 0 0 24-24v-32a79.816 79.816 0 0 0 -28.5-61.2z" fill="#58575b"/><path d="m184 456v-50.531a26.763 26.763 0 0 0 -20.957-26.126l-35.043-7.787v12.444c0 17.673-32 32-32 32s-32-14.327-32-32v-12.444l-35.043 7.787a26.763 26.763 0 0 0 -20.957 26.126v50.531h32v56h112v-56z" fill="#c09fde"/><path d="m378.75 263.667c6.25 2 14.25 4 21.25 4s15-2 21.25-4c12.065-3.861 25.421.952 31.592 12.015.029.052.322.376.806.9l.021-.095c7.031-33.477-18.612-68.487-53.669-68.487-35.057 0-61.889 35.01-54.854 68.483l.281 1.3c.863-.92 1.4-1.509 1.457-1.619 6.082-11.351 19.603-16.421 31.866-12.497z" fill="#68676b"/><path d="m504 472v-66.1a32 32 0 0 0 -25.724-31.378l-38.276-7.655v4.8a40 40 0 0 1 -80 0v-4.8l-38.276 7.655a32 32 0 0 0 -25.724 31.378v66.1h40v40h128v-40z" fill="#c09fde"/><circle cx="256" cy="112" fill="#b0ed98" r="48"/><path d="m371.72 399.947c25.017 25.016 68.28 7.383 68.28-28.28v-4.8l-16-3.2v-35.667h-48v35.667l-16 3.2c.345 1.989-2.477 18.882 11.72 33.08z" fill="#ffd5c7"/><path d="m8 456h32v56h-32z" fill="#ffdfc5"/><path d="m96 416s32-14.327 32-32v-12.444l-16-3.556v-32h-32v32l-16 3.556v12.444c0 17.673 32 32 32 32z" fill="#ffd5c7"/><g fill="#ffdfc5"><path d="m152 456h32v56h-32z"/><path d="m452.842 275.682c-6.171-11.063-19.527-15.876-31.592-12.015-6.25 2-14.25 4-21.25 4s-15-2-21.25-4c-12.263-3.924-25.784 1.146-31.866 12.494-.059.11-.594.7-1.457 1.619l7.968 36.805c6.17 19.493 24.721 33.082 46.012 33.082 21.292 0 39.843-13.589 46.013-33.082l8.228-38.007c-.484-.52-.777-.844-.806-.896z"/><path d="m56 280h80v32c0 21.414-16 40-40 40s-40-18.586-40-40z"/><path d="m296 472h40v40h-40z"/><path d="m464 472h40v40h-40z"/></g><path d="m295.416 84.619a120.381 120.381 0 0 1 -66.8 66.8 47.991 47.991 0 0 0 66.8-66.8z" fill="#96ea8c"/><path d="m184 456v-50.531a26.755 26.755 0 0 0 -14-23.5 199.4 199.4 0 0 1 -130 105.922v24.109h112v-56z" fill="#bc85dd"/><path d="m504 472v-66.1a32 32 0 0 0 -25.7-31.373c-6.026 26.201-32.635 110.573-129.395 137.473h115.095v-40z" fill="#bc85dd"/><circle cx="332" cy="412" fill="#d2c1e8" r="20"/><circle cx="372" cy="436" fill="#d2c1e8" r="12"/><circle cx="36" cy="412" fill="#d2c1e8" r="20"/><circle cx="76" cy="436" fill="#d2c1e8" r="12"/><circle cx="72" cy="240" fill="#8a8a8c" r="16"/><circle cx="104" cy="248" fill="#8a8a8c" r="8"/><path d="m422.4 213.127a91.915 91.915 0 0 1 -31.587 53.609 52.345 52.345 0 0 0 9.188.931c7 0 15-2 21.25-4 12.065-3.861 25.421.952 31.592 12.015.029.052.322.376.806.9l.021-.095c5.416-25.78-8.556-52.449-31.27-63.36z" fill="#58575b"/><circle cx="368" cy="240" fill="#8a8a8c" r="16"/><circle cx="400" cy="248" fill="#8a8a8c" r="8"/></g><g id="Outline"><path d="m479.845 366.677-47.845-9.569c-.079-9.181.186-9.661-.251-11.4a56.523 56.523 0 0 0 21.411-29.067c2.049-22.208 23.188-58.133-5.353-93.294-41.922-51.647-124.315-10.628-109.993 57.075 5.95 17.7 2.13 47.547 30.293 65.991-.2 1.259-.068 1.259-.107 10.692l-47.844 9.569a40.107 40.107 0 0 0 -32.156 39.226v98.1c0 10.576 16 10.592 16 0v-24h24v24c0 10.576 16 10.592 16 0v-68.333c0-10.577-16-10.593-16 0v28.333h-24v-58.1a24.063 24.063 0 0 1 19.294-23.533l28.966-5.794c3.193 31.06 35.276 52.124 66.127 39.344a47.081 47.081 0 0 0 29.368-39.341l28.952 5.791a24.064 24.064 0 0 1 19.293 23.533v58.1h-24v-28.333c0-10.577-16-10.593-16 0v68.333c0 10.576 16 10.592 16 0v-24h24v24c0 10.576 16 10.592 16 0v-98.1a40.107 40.107 0 0 0 -32.155-39.223zm-44.461-133.244a51.35 51.35 0 0 1 10.967 25.122c-18.96-10.222-30.333 1.112-46.351 1.112-16.278 0-28.331-11.793-47.5-.468 5.736-41.109 55.765-59.178 82.884-25.766zm-74.252 79.078-7.09-32.75a18.76 18.76 0 0 1 22.27-8.475c18.109 5.8 29.246 5.8 47.376 0a18.838 18.838 0 0 1 21.394 7.048l-7.4 34.177c-11.792 36.117-64.742 36.161-76.55 0zm16.245 81.779a31.188 31.188 0 0 1 -9.331-20.874l9.523-1.9c9.306-1.861 5.7-13.274 6.431-17.922a58.055 58.055 0 0 0 32-.347c.769 5.007-2.913 16.4 6.431 18.269l9.521 1.9c-1.344 27.208-34.93 40.518-54.575 20.874z"/><path d="m164.778 371.533-44.778-9.95v-7.689c33.271-18.609 21.782-57.62 24-73.894a8 8 0 0 0 -8-8h-80a8 8 0 0 0 -8 8c2.272 16.639-9.324 55.255 24 73.894v7.689l-44.778 9.95a34.557 34.557 0 0 0 -27.222 33.936v98.531c0 10.576 16 10.592 16 0v-40h16v40c0 10.576 16 10.592 16 0v-68.333c0-10.577-16-10.593-16 0v12.333h-16v-42.531a18.653 18.653 0 0 1 14.693-18.317l25.307-5.623v2.471c0 20.329 34.949 43.024 43.269 39.3 40.786-18.259 36.453-41.435 36.731-41.773l25.307 5.623a18.653 18.653 0 0 1 14.693 18.319v42.531h-16v-12.333c0-10.577-16-10.593-16 0v68.333c0 10.576 16 10.592 16 0v-40h16v40c0 10.576 16 10.592 16 0v-98.531a34.557 34.557 0 0 0 -27.222-33.936zm-100.778-59.533v-24h64v24c0 42.705-64 42.628-64 0zm32 95.118c-30.943-15.918-22.714-26.861-24-29.145l9.735-2.163c8.886-1.975 5.645-12.719 6.265-16.435a51.529 51.529 0 0 0 16 0c.623 3.737-2.617 14.461 6.265 16.435l9.735 2.163c-1.329 2.359 7.008 13.195-24 29.145z"/><path d="m48 344a8 8 0 0 0 -8-8 16.019 16.019 0 0 1 -16-16v-32a72 72 0 0 1 144 0v32a16.019 16.019 0 0 1 -16 16c-10.576 0-10.592 16 0 16a32.036 32.036 0 0 0 32-32v-32a88 88 0 0 0 -176 0v32c0 30.515 40 40.8 40 24z"/><path d="m264 8c0-10.577-16-10.592-16 0s16 10.592 16 0z"/><path d="m256 240c10.577 0 10.592-16 0-16s-10.592 16 0 16z"/><path d="m208 304c0 10.577 16 10.592 16 0s-16-10.592-16 0z"/><path d="m168 160c-10.577 0-10.592 16 0 16 10.577 0 10.592-16 0-16z"/><path d="m352 64c0-10.577-16-10.592-16 0 0 10.577 16 10.592 16 0z"/><path d="m248 120c-10.577 0-10.592 16 0 16s10.592-16 0-16z"/><path d="m256 96c0-10.577-16-10.592-16 0 0 10.577 16 10.592 16 0z"/><path d="m280 120c0-10.577-16-10.592-16 0s16 10.592 16 0z"/><path d="m176 40c0-10.577-16-10.592-16 0 0 10.577 16 10.592 16 0z"/><path d="m248 200c0 10.576 16 10.592 16 0v-32.581a55.434 55.434 0 0 0 9.817-2.342c32.355 38.749 31.318 42.923 38.188 42.923a8.01 8.01 0 0 0 6.242-13l-29.878-37.348a56.359 56.359 0 0 0 6.416-5.317c30.685 15.021 29.875 15.665 33.209 15.665 8.429 0 11.091-11.4 3.584-15.157l-26.794-13.4a55.573 55.573 0 0 0 6.635-19.443h32.581c10.578 0 10.591-16 0-16h-32.581a55.47 55.47 0 0 0 -2.277-9.626l14.436-7.219c9.463-4.731 2.316-19.046-7.156-14.31l-14.454 7.227a56.438 56.438 0 0 0 -5.356-6.569l30.044-45.065c5.868-8.8-7.439-17.69-13.312-8.875l-29.323 43.983a55.562 55.562 0 0 0 -20.021-6.965v-16.581c0-10.576-16-10.592-16 0v16.581c-1.517.218-3.012.5-4.488.84l-20.5-37.276c-5.1-9.269-19.125-1.571-14.02 7.71l19.476 35.411a56.154 56.154 0 0 0 -6.057 3.958c-1.5-2.019-1.056-1.068-25.971-17.88-8.8-5.871-17.689 7.437-8.875 13.312l23.65 15.767a56.145 56.145 0 0 0 -4.9 7.79l-10.737-5.368c-9.46-4.728-16.63 9.574-7.156 14.31l12.589 6.294c-.162.844-.307 1.694-.43 2.551h-32.581c-10.576 0-10.592 16 0 16h32.581a55.507 55.507 0 0 0 3.855 13.838l-16.943 11.552c-8.8 6 .354 19.123 9.014 13.22l16.244-11.076a56.488 56.488 0 0 0 8.573 8.389l-20.088 31.805c-5.646 8.941 7.872 17.5 13.528 8.544l20.4-32.307a55.489 55.489 0 0 0 12.836 3.454zm-32-88a40 40 0 1 1 40 40 40.045 40.045 0 0 1 -40-40z"/><path d="m317.715 309.593a6.05 6.05 0 0 0 .7-.831 7.937 7.937 0 0 0 1.111-7.448c-.872-2.448-.2-1.293-25.871-26.971-7.479-7.476-18.805 3.823-11.314 11.314l10.345 10.343h-44.686c-10.576 0-10.592 16 0 16h44.686l-10.343 10.343a8.009 8.009 0 0 0 5.657 13.657c3.742 0 3.151.8 29.715-26.407z"/></g></g></svg>