<svg height="350" viewBox="0 0 512 512" width="350" xmlns="http://www.w3.org/2000/svg"><g id="Virus"><g id="Filled"><path d="m488 224a16 16 0 0 0 -16 16h-24.669a191.142 191.142 0 0 0 -44.731-107.972l17.45-17.449a16 16 0 0 0 22.627 0 16 16 0 0 0 0-22.628l-22.628-22.627a16 16 0 0 0 -22.628 22.627l-17.449 17.449a191.139 191.139 0 0 0 -107.972-44.731v-24.669a16 16 0 0 0 0-32h-32a16 16 0 0 0 0 32v24.669a191.142 191.142 0 0 0 -107.972 44.731l-17.449-17.45a16 16 0 0 0 -22.628-22.626l-22.627 22.627a16 16 0 0 0 0 22.628 16 16 0 0 0 22.627 0l17.45 17.449a191.142 191.142 0 0 0 -44.732 107.972h-24.669a16 16 0 0 0 -16-16 16 16 0 0 0 -16 16v32a16 16 0 0 0 16 16 16 16 0 0 0 16-16h24.669a191.142 191.142 0 0 0 44.731 107.972l-17.45 17.449a16 16 0 0 0 -22.627 0 16 16 0 0 0 0 22.628l22.627 22.627a16 16 0 0 0 22.628-22.627l17.449-17.45a191.142 191.142 0 0 0 107.973 44.732v24.669a16 16 0 0 0 0 32h32a16 16 0 0 0 0-32v-24.669a191.139 191.139 0 0 0 107.972-44.731l17.449 17.45a16 16 0 0 0 22.628 22.627l22.627-22.627a16 16 0 0 0 0-22.628 16 16 0 0 0 -22.627 0l-17.449-17.45a191.142 191.142 0 0 0 44.731-107.972h24.669a16 16 0 0 0 16 16 16 16 0 0 0 16-16v-32a16 16 0 0 0 -16-16z" fill="#bc85dd"/><path d="m504 272v-32a16 16 0 0 0 -16-16 16 16 0 0 0 -16 16h-24.669a191.087 191.087 0 0 0 -42.477-105.257c-44.315 133.243-161.168 233.341-303.729 253.505l-9.174 9.173a16 16 0 0 0 -22.627 0 16 16 0 0 0 0 22.628l22.627 22.627a16 16 0 0 0 22.628-22.627l17.449-17.45a191.142 191.142 0 0 0 107.972 44.732v24.669a16 16 0 0 0 0 32h32a16 16 0 0 0 0-32v-24.669a191.139 191.139 0 0 0 107.972-44.731l17.449 17.45a16 16 0 0 0 22.628 22.627l22.627-22.627a16 16 0 0 0 -22.627-22.628l-17.449-17.45a191.142 191.142 0 0 0 44.731-107.972h24.669a16 16 0 0 0 16 16 16 16 0 0 0 16-16z" fill="#b96edb"/><path d="m407.2 127.431 12.853-12.852a16 16 0 0 0 22.627-22.628l-22.469-22.465a373.617 373.617 0 0 1 -13.011 57.945z" fill="#b96edb"/><g fill="#d2c1e8"><circle cx="256" cy="256" r="40"/><ellipse cx="302.024" cy="144.39" rx="31.314" ry="40" transform="matrix(.331 -.943 .943 .331 65.706 381.499)"/><ellipse cx="215.15" cy="367.61" rx="31.314" ry="40" transform="matrix(.331 -.943 .943 .331 -202.986 448.782)"/><path d="m440.061 171.244c-11.271-16.379-29.259-23.566-40.179-16.052-6.855 4.717-9.294 14.106-7.372 24.5l15.936 27.879c10.64 9.651 23.643 12.864 32.251 6.94 10.92-7.519 10.635-26.888-.636-43.267z"/><path d="m355.96 397.133c-3.71-7.449-12.665-11.18-23.22-10.733l-29.84 11.871c-11.047 9.183-16.051 21.607-11.392 30.961 5.909 11.864 25.127 14.3 42.924 5.433s27.437-25.665 21.528-37.532z"/><path d="m126.192 325.939-18.661-26.134c-8.633-6.09-18.181-7.8-25.333-3.546-11.391 6.777-12.385 26.122-2.22 43.21s27.64 25.445 39.032 18.668c8.98-5.343 11.499-18.497 7.182-32.198z"/><path d="m222.967 78.965c-4.628-12.42-23.483-16.862-42.114-9.92s-29.983 22.638-25.353 35.055c2.905 7.8 11.417 12.451 21.961 13.117l30.921-8.665c11.95-7.967 18.233-19.794 14.585-29.587z"/><ellipse cx="365.959" cy="293.715" rx="40" ry="31.314" transform="matrix(.536 -.844 .844 .536 -78.212 445.064)"/><ellipse cx="146.041" cy="205.715" rx="40" ry="31.314" transform="matrix(.536 -.844 .844 .536 -105.91 218.647)"/></g><path d="m179.978 116.514 28.4-7.959c11.952-7.97 18.235-19.8 14.587-29.59-2.336-6.269-8.3-10.5-16.025-12.267a64.148 64.148 0 0 1 -26.962 49.816z" fill="#c09fde"/><path d="m440.061 171.244a52.208 52.208 0 0 0 -8.385-9.516 51.99 51.99 0 0 1 -26.652 39.85l3.422 5.988c10.64 9.651 23.643 12.864 32.251 6.94 10.92-7.514 10.635-26.883-.636-43.262z" fill="#c09fde"/><path d="m126.192 325.939-14.571-20.406a56 56 0 0 1 -26.421 41.254c10.231 12 24.187 17.072 33.806 11.35 8.984-5.343 11.503-18.497 7.186-32.198z" fill="#c09fde"/><path d="m355.96 397.133c-3.71-7.449-12.665-11.18-23.22-10.733l-5.457 2.171a52.046 52.046 0 0 1 -35.588 41c6.107 11.567 25.116 13.873 42.74 5.1 17.797-8.871 27.434-25.671 21.525-37.538z" fill="#c09fde"/><path d="m266.289 217.342a47.959 47.959 0 0 1 -34.994 70.1 40 40 0 1 0 34.994-70.1z" fill="#c09fde"/><path d="m339.764 157.645c4.319-12.3-1.576-26.2-13.661-35.446a33.463 33.463 0 0 1 -1.789 14.171c-7.314 20.83-32.034 28.44-54.262 22.437a47.046 47.046 0 0 0 21.595 15.127c20.843 7.321 42.386.028 48.117-16.289z" fill="#c09fde"/><path d="m246.073 359.51c-5.667 16.136-22.19 24.49-39.318 24.49a57.724 57.724 0 0 1 -26.386-6.12c4.839 8.278 13.428 15.419 24.4 19.275 20.843 7.32 42.386.028 48.117-16.289 3.16-9 .845-18.855-5.355-27.12a34.1 34.1 0 0 1 -1.458 5.764z" fill="#c09fde"/><path d="m392.388 310.51c10.483-16.5 9.939-36.11-.434-46.836.971 26.069-19.876 56.326-49.587 56.326a35.909 35.909 0 0 1 -5.717-.465 25.3 25.3 0 0 0 7.856 7.941c14.594 9.275 36.034 1.679 47.882-16.966z" fill="#c09fde"/><path d="m172.47 222.51c8.246-12.977 9.667-27.88 4.853-38.872-10.382 22.126-32.084 40.362-59.423 40.362-1.538 0-3.062-.1-4.58-.235a26.8 26.8 0 0 0 11.265 15.711c14.6 9.275 36.037 1.679 47.885-16.966z" fill="#c09fde"/></g><g id="Outline"><path d="m232 46.629v18.04c0 10.576 16 10.592 16 0v-24.669a8 8 0 0 0 -8-8c-10.588 0-10.575-16 0-16h32c10.588 0 10.575 16 0 16a8 8 0 0 0 -8 8v24.669a8 8 0 0 0 7.342 7.973c20.377 1.681 29.617 5.421 32.663 5.421 9.34 0 11.053-13.416 1.989-15.75a200.143 200.143 0 0 0 -25.994-4.874v-10.81c25.356-8.991 18.805-46.629-8-46.629h-32c-26.8 0-33.365 37.635-8 46.629z"/><path d="m355.661 101.315a185.528 185.528 0 0 1 19.139 14.192 8 8 0 0 0 10.825-.449l17.45-17.45a8 8 0 0 0 0-11.314c-7.5-7.5 3.909-18.716 11.314-11.314l22.631 22.628c7.5 7.5-3.847 18.782-11.314 11.314a8 8 0 0 0 -11.314 0l-17.45 17.45a8.009 8.009 0 0 0 5.657 13.656c5.536 0 6.969-4.541 18.419-15.1 24.282 11.572 46.272-19.678 27.315-38.634l-22.627-22.627c-18.541-18.542-50.355 2.707-38.629 27.315l-7.653 7.653c-4.862-3.818-9.914-7.423-15.084-10.761-8.886-5.737-17.577 7.695-8.679 13.441z"/><path d="m465.371 232h-18.04c-10.576 0-10.592 16 0 16h24.669a8 8 0 0 0 8-8c0-10.588 16-10.575 16 0v32c0 10.588-16 10.575-16 0a8 8 0 0 0 -8-8h-24.669a8 8 0 0 0 -7.973 7.342 182.491 182.491 0 0 1 -42.865 103.458 8 8 0 0 0 .449 10.825l17.45 17.45a8 8 0 0 0 11.314 0 8.015 8.015 0 0 1 13.657 5.657c0 5.731-3.628 5.936-24.971 28.284a8.009 8.009 0 0 1 -13.657-5.657c0-5.727 4.686-5.585 4.686-11.313 0-5.624-3.974-6.335-19.793-23.107-7.478-7.478-18.8 3.825-11.313 11.314l12.754 12.754a24.009 24.009 0 0 0 21.666 34.341c15.766 0 20.784-12.973 39.6-29.645 18.54-18.538-2.708-50.354-27.315-38.629l-7.65-7.65a198.138 198.138 0 0 0 41.193-99.424h10.808c8.991 25.356 46.629 18.805 46.629-8v-32c0-26.795-37.634-33.367-46.629-8z"/><path d="m280 465.371v-18.04c0-10.576-16-10.592-16 0v24.669a8 8 0 0 0 8 8c10.588 0 10.575 16 0 16h-32c-10.588 0-10.575-16 0-16a8 8 0 0 0 8-8v-24.669a8 8 0 0 0 -7.342-7.973 182.5 182.5 0 0 1 -103.458-42.865 8 8 0 0 0 -10.825.449c-15.818 16.77-19.793 17.48-19.793 23.107 0 5.73 4.686 5.585 4.686 11.313a8.015 8.015 0 0 1 -13.657 5.658c-21.521-22.536-24.971-22.571-24.971-28.285a8.008 8.008 0 0 1 13.657-5.657 8 8 0 0 0 11.314 0l17.45-17.45c7.479-7.477-3.824-18.8-11.314-11.313l-12.765 12.762c-24.245-11.554-46.317 19.623-27.315 38.629l22.627 22.627c19.029 19.027 50.215-3.143 38.637-27.323l7.643-7.642a198.135 198.135 0 0 0 99.426 41.195v10.808c-25.356 8.991-18.8 46.629 8 46.629h32a24 24 0 0 0 8-46.629z"/><path d="m64.669 264h-24.669a8 8 0 0 0 -8 8c0 10.588-16 10.575-16 0v-32c0-10.588 16-10.575 16 0a8 8 0 0 0 8 8h24.669a8 8 0 0 0 7.973-7.342 182.491 182.491 0 0 1 42.865-103.458 8 8 0 0 0 -.449-10.825l-17.45-17.45a8 8 0 0 0 -11.314 0c-7.482 7.482-18.8-3.83-11.314-11.314l22.628-22.631c7.488-7.488 18.707 3.919 11.314 11.314a8 8 0 0 0 0 11.314l17.45 17.45c7.478 7.478 18.8-3.825 11.313-11.314l-12.762-12.762c11.577-24.282-19.673-46.272-38.629-27.315l-22.627 22.627c-19.009 19.006 3.125 50.222 27.323 38.637l7.642 7.642a198.138 198.138 0 0 0 -41.195 99.427h-10.808c-8.991-25.356-46.629-18.8-46.629 8v32c0 26.8 37.635 33.365 46.629 8h18.04c10.576 0 10.592-16 0-16z"/><path d="m304 256c0-44.108-56-59.313-56-40a8 8 0 0 0 8 8 32 32 0 1 1 -31.36 25.592 8 8 0 0 0 -6.248-9.432c-20.713-4.226-13.262 63.84 37.608 63.84a48.055 48.055 0 0 0 48-48z"/><path d="m280.111 106.548c-45.523 15.412-24.872 78.238 27.883 78.238 17.118 0 33.648-8.347 39.318-24.49 11.546-32.874-30.912-66.029-67.201-53.748zm52.105 48.446c-4.7 13.382-23.407 16.488-37.918 11.392-26.022-9.14-32.158-36.861-9.057-44.683 24.841-8.41 53.685 14.189 46.975 33.291z"/><path d="m221.12 408.006c50.68 0 55.826-60.36 7.058-77.488-9.977-3.509-15.3 11.586-5.3 15.1 16.648 5.847 26.726 20.472 22.466 32.6-6.853 19.511-43.8 18-57.475-3.4-3.814-5.966-4.847-12.293-2.909-17.813 3.506-9.979-11.586-15.3-15.095-5.3-9.656 27.485 18.615 56.301 51.255 56.301z"/><path d="m456.7 196.082c-.478-32.483-37.5-63.893-61.352-47.48-8.1 5.571-12.177 15.526-11.378 27.251l-12.505 8.6c-8.71 5.993.343 19.186 9.07 13.18 11.818-9.436 21.371-11.138 19.842-19.407-6.42-34.682 39.85-14.086 40.325 18.086.245 16.754-14.657 16.41-26.882 5.323-6.985-6.339-17.334 2.659-11.959 10.457-1.914 2-16 7.391-9.777 16.438a8 8 0 0 0 11.125 2.055l12.536-8.625c21.972 10.074 41.296-2.633 40.955-25.878z"/><path d="m337.733 378.482-6.767-13.582c-4.716-9.467-19.045-2.348-14.322 7.132 7.708 13.071 8.033 22.717 16.435 22.366 35.1-1.471 8.469 41.441-23.559 37.392-16.65-2.108-14.169-16.833-1.5-27.362 7.254-6.029-.2-17.537-8.678-13.307-1.707-2.174-5.074-16.877-14.9-11.984a8 8 0 0 0 -3.6 10.728l6.782 13.617c-14.172 22.076-1.29 44.518 25.432 44.518 30.958 0 62.173-30.121 50.065-54.435-4.382-8.796-13.667-14.231-25.388-15.083z"/><path d="m102.919 306.342c6.864 4.842 12.376-3.1 25.927-9.908 9.086-5.407.924-19.167-8.181-13.751l-13.045 7.761c-10.316-5.629-21.066-6.087-29.512-1.061-24.399 14.517-12.577 61.217 17.474 75.586 20.877 9.984 40.6-2.107 40.641-26.381l13.073-7.777c9.09-5.407.923-19.166-8.18-13.751l-8.055 4.792c-4.836-8.139-17.336-2.509-14.5 6.491 4.96 15.738-.954 29.425-16.075 22.192-29.051-13.894-28.37-64.514.433-44.193z"/><path d="m171.66 124.569c4.3 8.742 4.09 19.433 12.8 19.433a8.008 8.008 0 0 0 7.5-10.8c-6.274-13.76-5.6-23.442-13.99-23.971-24.855-1.57-17.2-24.168 5.683-32.7 27.337-10.187 45.8 8.35 20.3 25.357-7.847 5.233-1.648 17.46 7.229 14.147 1.469 2.342 3.271 17.321 13.562 13.486a8 8 0 0 0 4.7-10.289l-5.312-14.254c22.6-28.184-6.335-58.243-46.064-43.44-40.296 15.021-41.506 56.715-6.408 63.031z"/><path d="m391.7 253.2c-18.3-11.628-44.73-2.911-58.924 19.428-19.368 30.478-5.118 66.75 25.6 66.75 43.28.003 67.824-64.256 33.324-86.178zm-6.066 53.016c-9.463 14.893-25.989 21.4-36.84 14.5-10.849-6.895-11.978-24.62-2.514-39.512s25.989-21.4 36.839-14.5 11.981 24.623 2.517 39.515z"/><path d="m179.222 226.8c24.7-38.874-8.787-74.4-18.48-59.136a8 8 0 0 0 2.462 11.043c10.849 6.9 11.978 24.62 2.514 39.512s-25.986 21.4-36.839 14.5c-11.97-7.606-10.763-26.532-2.515-39.512 5.673-8.927-7.825-17.522-13.5-8.581-6.685 10.519-9.753 22.546-8.638 33.865 3.853 39.198 51.715 44.948 74.996 8.309z"/><path d="m240 224c0-10.577-16-10.592-16 0 0 10.577 16 10.592 16 0z"/><path d="m208 336c0-10.577-16-10.592-16 0s16 10.592 16 0z"/><path d="m344 80c0-10.577-16-10.592-16 0 0 10.577 16 10.592 16 0z"/><path d="m144 176c10.577 0 10.592-16 0-16-4.418 0-10.592 16 0 16z"/></g></g></svg>