<svg height="100" viewBox="0 0 512 512" width="100" xmlns="http://www.w3.org/2000/svg"><g id="Wash_Hands_With_Soap" data-name="Wash Hands With Soap"><g id="Filled"><path d="m512 512v-65.981l-143.489-143.489s4.349-15.012 0-45.255c-4.843-33.654-31-75.835-56.511-132.936v-33.939c-18.131-2.984-28.363 8.945-36.827 28.284-8.485 19.4 0 67.882 0 67.882-109.554-106.033-106.625-114.49-124.451-114.511-21.3.025-32.048 25.893-16.97 40.97-8.329-6.9-13.671-18.325-28.284-18.342-21.3.025-32.049 25.892-16.971 40.97l19.8 19.8a24 24 0 0 0 -33.941 33.941l22.626 22.626a23.967 23.967 0 0 0 -16.97-7.029c-21.3.025-32.049 25.893-16.971 40.97l96.167 96.167c34.174 34.174 106.54 62.034 107.48 62.225l107.647 107.647z" fill="#ffbeaa"/><path d="m423.919 106.77c.05-.9.081-1.8.081-2.715a48 48 0 0 0 -89.8-23.587 47.872 47.872 0 0 0 -48.868 25.606 47.98 47.98 0 0 0 -73.165 18.426 48 48 0 0 0 -64.787 61.246 47.985 47.985 0 0 0 -26.644 73.906 47.995 47.995 0 1 0 79.264 36.403c0-10.274 185.152-96 208-96a48 48 0 0 0 15.919-93.285z" fill="#afefde"/><path d="m423.919 106.77c.05-.9.081-1.8.081-2.715a48.018 48.018 0 0 0 -65.558-44.682 264.989 264.989 0 0 1 -43.276 175.848c42.572-19.075 82.934-35.166 92.834-35.166a48 48 0 0 0 15.919-93.285z" fill="#96e0d7"/><circle cx="252" cy="124" fill="#d5f7ed" r="20"/><circle cx="260" cy="172" fill="#d5f7ed" r="12"/><path d="m423.988 276.991a23.965 23.965 0 0 0 -16.97 7.029l22.627-22.627a24 24 0 0 0 -33.945-33.941l19.8-19.8c15.078-15.078 4.326-40.945-16.971-40.97-14.613.017-19.955 11.444-28.284 18.342 15.078-15.077 4.327-40.945-16.97-40.97-17.826.021-14.9 8.478-124.451 114.509 0 0 8.485-48.479 0-67.882-8.464-19.339-18.7-31.268-36.827-28.284v33.941l-45.233 94.972c-5.607 14.87-9.907 28.432-11.278 37.964-4.349 30.243 0 45.255 0 45.255l-135.486 137.471h201.665l35.647-35.647c.941-.191 73.306-28.051 107.48-62.225l96.167-96.167c15.078-15.077 4.326-40.945-16.971-40.97z" fill="#ffdfc5"/><g fill="#afefde"><circle cx="252" cy="36" r="28"/><circle cx="36" cy="36" r="28"/><circle cx="120" cy="24" r="16"/><circle cx="24" cy="128" r="16"/><circle cx="476" cy="36" r="28"/></g><path d="m502.023 25.667a71.171 71.171 0 0 1 -40.114 34.525 28 28 0 0 0 40.114-34.525z" fill="#96e0d7"/><circle cx="476" cy="20" fill="#d5f7ed" r="12"/><path d="m278.023 25.667a71.171 71.171 0 0 1 -40.114 34.525 28 28 0 0 0 40.114-34.525z" fill="#96e0d7"/><circle cx="252" cy="20" fill="#d5f7ed" r="12"/><path d="m62.023 25.667a71.171 71.171 0 0 1 -40.114 34.525 28 28 0 0 0 40.114-34.525z" fill="#96e0d7"/><circle cx="36" cy="20" fill="#d5f7ed" r="12"/><path d="m133.131 14.872a40.106 40.106 0 0 1 -22.259 22.259 15.989 15.989 0 0 0 22.259-22.259z" fill="#96e0d7"/><path d="m37.131 118.872a40.106 40.106 0 0 1 -22.259 22.259 15.989 15.989 0 0 0 22.259-22.259z" fill="#96e0d7"/><path d="m201.665 512 35.647-35.647c.941-.191 73.306-28.051 107.48-62.225l96.167-96.167c13.135-13.134 6.664-34.451-9.3-39.744-89.519 74.616-218.727 131.14-336.369 137.1l-95.29 96.683z" fill="#ffd5c7"/><circle cx="200" cy="312" fill="#fff7e6" r="24"/><circle cx="236" cy="348" fill="#fff7e6" r="12"/></g><g id="Outline"><path d="m509.815 432.52-68-68c-7.478-7.476-18.8 3.822-11.314 11.314l68 68a8 8 0 1 0 11.314-11.314z"/><path d="m102.64 206.364-22.628-22.629a16.018 16.018 0 0 1 0-22.627 16.01 16.01 0 0 1 22.627 0 8.011 8.011 0 0 0 13.657-5.657c0-5.733-4-6.275-22.142-25.456-10.237-10.234-2.6-27.3 11.3-27.312 10.53.013 14.345 9.175 23.191 16.5 7.8 6.46 17.894-4.685 10.76-11.819-10.255-10.255-2.577-27.3 11.3-27.312 5.3.006 7.09.007 20.625 13.59 7.463 7.493 18.812-3.79 11.334-11.292-14.114-14.165-20.019-18.285-31.959-18.3-15.74.017-28.258 10.855-31.361 25.77a31.853 31.853 0 0 0 -43.413 16.663c-8.594 20.784 7.056 34.928 7.109 35.029-23.489 6.249-31.877 36-14.35 53.532l3 3a31.489 31.489 0 0 0 -21.207 18.756c-11.412 27.6 17.311 42.507 24.94 52.858 7.422 7.42 18.807-3.82 11.314-11.314-11.122-13.538-27.71-20.338-21.468-35.43a15.932 15.932 0 0 1 26.056-5.236c7.48 7.477 18.804-3.825 11.315-11.314z"/><path d="m333.657 460.008c-7.479-7.476-18.8 3.823-11.314 11.314l38 38a8 8 0 0 0 11.314-11.314z"/><path d="m446.617 323.617c18.069-18.069 8.4-47.616-14.318-53.563l3.011-3.011c17.346-17.365 9.4-47.227-14.387-53.5l.234-.233c25.689-25.691-4.9-67.165-36.507-51.486-3.128-15-15.7-25.747-31.379-25.762-21.183.024-18.95 8.14-113.59 100.776 1.439-16.273 1.832-37.109-3.523-49.365-7.095-16.2-19.524-37.238-45.46-32.964a8 8 0 0 0 -6.698 7.891v32.23c-32.938 73.333-66.544 119.09-57.187 177.31l-30.633 31.107c-7.427 7.543 3.971 18.769 11.4 11.226 58.486-62.857 25.612-12.834 35.829-83.856 5.591-38.917 56.591-123.174 56.591-134.077v-26.225c7.313 1.055 14.124 6.928 21.5 23.768 5.8 13.271 2.172 46.323-.14 60.835l-15.16 15.16a8 8 0 0 0 11.314 11.314l16.97-16.97.009-.009c104.616-101.26 105.6-112.139 118.78-112.153 13.838.013 21.612 16.929 11.28 27.348l-98.953 98.955c-7.476 7.478 3.822 18.805 11.314 11.315 119.908-119.641 112.364-114.985 121.609-115a15.8 15.8 0 0 1 14.757 9.925c5.452 13.19-7.181 20.127-9.527 23.487-2.6 2.6-57.6 57.6-104.215 104.211a8.011 8.011 0 0 0 5.66 13.658c4.429 0-3.591 6.923 96.273-92.955a16 16 0 0 1 22.526 22.726c-28.77 28.767-61.721 61.72-90.514 90.513-7.477 7.478 3.821 18.8 11.313 11.315.1-.1 71.62-71.618 67.885-67.883 14.924-14.925 37.51 7.742 22.626 22.626l-96.17 96.17c-36 36-103.871 58.609-107.481 62.22l-29.31 29.321c-7.494 7.5 3.912 18.718 11.316 11.312l28.108-28.124c14.385-5.385 77.141-31.882 108.677-63.417zm-211.636 145.083a5.466 5.466 0 0 1 .748-.188c-.252.047-.502.109-.748.188z"/><path d="m51.3 448.627-49 49.76a8.01 8.01 0 0 0 5.7 13.613c6.305 0 5.571-3.471 54.7-52.146 7.419-7.535-3.968-18.775-11.4-11.227z"/><path d="m252 72a36 36 0 1 0 -36-36 36.04 36.04 0 0 0 36 36zm0-56a20 20 0 1 1 -20 20 20.023 20.023 0 0 1 20-20z"/><path d="m36 72a36 36 0 1 0 -36-36 36.04 36.04 0 0 0 36 36zm0-56a20 20 0 1 1 -20 20 20.023 20.023 0 0 1 20-20z"/><path d="m120 48a24 24 0 1 0 -24-24 24.027 24.027 0 0 0 24 24zm0-32c10.588 0 10.575 16 0 16s-10.575-16 0-16z"/><path d="m24 152a24 24 0 1 0 -24-24 24.027 24.027 0 0 0 24 24zm0-32c10.588 0 10.575 16 0 16s-10.575-16 0-16z"/><path d="m476 72a36 36 0 1 0 -36-36 36.04 36.04 0 0 0 36 36zm0-56a20 20 0 1 1 -20 20 20.023 20.023 0 0 1 20-20z"/><path d="m136 168.056a55.778 55.778 0 0 0 1.463 12.732 56.08 56.08 0 0 0 -26.886 77.6 56 56 0 0 0 -5.239 68.637c5.815 8.746 19.235.033 13.324-8.859a39.994 39.994 0 0 1 7.289-52.451 8 8 0 0 0 1.327-10.672 40.019 40.019 0 0 1 16.022-59.337 55.934 55.934 0 0 0 6.9 9.62c7.041 7.892 18.989-2.749 11.938-10.652a39.977 39.977 0 0 1 -10.138-26.618c0-29.2 30.42-48.534 56.8-36.3a8 8 0 1 0 6.732-14.514c-36.949-17.142-79.532 9.943-79.532 50.814z"/><path d="m256.111 95.394a8 8 0 0 0 6.562 9.216 39.978 39.978 0 0 1 17.766 7.792l.03.021a39.919 39.919 0 0 1 15.531 31.633c0 10.578 16 10.591 16 0a55.851 55.851 0 0 0 -16.339-39.517c9.477-12.981 22.158-16.894 38.151-16.1 20.2 2.977 22.11 15.563 29.969 15.563a7.972 7.972 0 0 0 5.332-2.039c9.906-8.865-10.2-22.142-21.4-26.358 21.648-22.251 62.356-10.5 67.68 21.129-14.141 2.193-38.861 14.262-29.353 24.882a7.975 7.975 0 0 0 5.96 2.662c6.647 0 9.282-9.384 26.325-11.816 3 2.945 19.7 5.547 27.15 25.666a39.875 39.875 0 0 1 -2.795 33.872c-5.267 9.134 8.621 17.079 13.861 7.992a56.059 56.059 0 0 0 -24.6-78.569c-2.281-53.555-71.969-73.072-101.915-29.373a56.524 56.524 0 0 0 -47.162 22.875c-9.702-5.309-24.905-10.515-26.753.469z"/><path d="m72 432c0 10.577 16 10.592 16 0 0-4.418-16-10.592-16 0z"/><path d="m232 112a8 8 0 0 0 0-16c-10.577 0-10.592 16 0 16z"/></g></g></svg>