<?xml version="1.0" encoding="UTF-8"?>
<svg xmlns="http://www.w3.org/2000/svg" xmlns:xlink="http://www.w3.org/1999/xlink" width="199pt" height="135pt" viewBox="0 0 199 181" version="1.1">
<g id="surface1">
<path style=" stroke:none;fill-rule:nonzero;fill:rgb(9.411765%,81.960784%,100%);fill-opacity:1;" d="M 103.722656 125.210938 C 103.722656 125.210938 106.253906 127.574219 105.785156 128.90625 C 104.710938 131.96875 99.90625 133.390625 96.785156 132.546875 C 91.800781 131.191406 87.242188 125.445312 87.289062 120.261719 C 87.351562 112.660156 95.101562 106.503906 101.53125 102.484375 C 108.152344 98.347656 116.5625 97.21875 124.359375 97.351562 C 132.847656 97.492188 141.90625 99.105469 149.011719 103.765625 C 152.964844 106.359375 156.230469 110.464844 157.777344 114.949219 C 158.652344 117.488281 157.777344 123.011719 157.777344 123.011719 C 157.777344 123.011719 164.75 113.347656 167.273438 107.980469 C 170.277344 101.585938 174.691406 94.839844 173.847656 87.820312 C 173.460938 84.605469 171.34375 81.476562 168.734375 79.570312 C 160.363281 73.460938 148.945312 72.398438 138.605469 72.054688 C 127.910156 71.699219 117.039062 73.992188 107.011719 77.738281 C 100.179688 80.285156 93.496094 83.890625 88.203125 88.917969 C 82.242188 94.578125 76.53125 101.46875 74.507812 109.449219 C 73.195312 114.621094 73.472656 120.679688 75.96875 125.394531 C 78.21875 129.652344 82.652344 132.765625 87.105469 134.5625 C 91.46875 136.320312 96.695312 137.109375 101.167969 135.660156 C 104.128906 134.703125 108.191406 132.734375 108.289062 129.613281 C 108.433594 125.015625 103.722656 125.214844 103.722656 125.214844 Z M 103.722656 125.210938 "/>
<path style=" stroke:none;fill-rule:nonzero;fill:rgb(0.392157%,40%,99.607843%);fill-opacity:1;" d="M 101.246094 127.917969 C 101.246094 127.917969 100.585938 125.871094 101.148438 125.140625 C 102.0625 123.953125 104.128906 123.628906 105.527344 124.15625 C 107.5625 124.921875 109.382812 127.246094 109.386719 129.425781 C 109.390625 132.226562 106.941406 134.941406 104.457031 136.210938 C 99.027344 138.976562 91.953125 138.191406 86.195312 136.210938 C 81.308594 134.53125 76.527344 131.171875 73.960938 126.679688 C 70.234375 120.15625 69.363281 111.640625 71.039062 104.316406 C 72.746094 96.832031 78.296875 90.5625 83.636719 85.066406 C 89.378906 79.15625 96.324219 74.148438 103.90625 70.953125 C 112.59375 67.292969 122.269531 66.316406 131.664062 65.636719 C 139.75 65.054688 147.992188 65.222656 155.953125 66.738281 C 160.945312 67.6875 166 69.097656 170.378906 71.6875 C 172.101562 72.703125 174.832031 75.71875 174.832031 75.71875 C 174.832031 75.71875 173.632812 60.289062 171.292969 52.988281 C 169.265625 46.667969 167.117188 39.808594 162.34375 35.207031 C 158.96875 31.953125 154.140625 30.339844 149.5625 29.355469 C 140.871094 27.488281 131.648438 27.9375 122.902344 29.527344 C 112.683594 31.382812 102.8125 35.375 93.660156 40.296875 C 85.09375 44.898438 77.023438 50.699219 70.125 57.570312 C 64.476562 63.203125 59.148438 69.53125 55.882812 76.820312 C 52.589844 84.164062 50.898438 92.414062 50.953125 100.464844 C 50.996094 106.914062 52.324219 113.554688 55.152344 119.34375 C 57.796875 124.761719 62.035156 129.417969 66.65625 133.277344 C 70.675781 136.632812 75.40625 139.253906 80.351562 140.953125 C 85.011719 142.554688 90.042969 143.457031 94.960938 143.175781 C 100.714844 142.847656 107.265625 142.394531 111.652344 138.644531 C 114.214844 136.453125 116.066406 132.773438 115.804688 129.402344 C 115.625 127.042969 113.9375 124.707031 111.933594 123.457031 C 109.742188 122.09375 106.746094 121.257812 104.253906 121.925781 C 101.945312 122.546875 100.007812 123.789062 99.71875 125.726562 C 99.578125 126.648438 101.246094 127.917969 101.246094 127.917969 Z M 101.246094 127.917969 "/>
<path style=" stroke:none;fill-rule:nonzero;fill:rgb(0.392157%,0%,80%);fill-opacity:1;" d="M 102.023438 129.550781 C 102.023438 129.550781 98.472656 128.832031 97.558594 127.503906 C 96.234375 125.582031 96.328125 122.875 97.625 120.9375 C 99.765625 117.75 104.347656 116.527344 108.175781 116.367188 C 114.644531 116.101562 122.550781 117.511719 126.585938 122.597656 C 129.949219 126.839844 130.632812 133.953125 128.1875 138.792969 C 125.734375 143.648438 119.371094 145.535156 114.175781 147.097656 C 106.039062 149.542969 97.117188 149.667969 88.730469 148.34375 C 80.066406 146.96875 71.605469 143.589844 64.117188 139 C 55.867188 133.941406 48.304688 127.320312 42.605469 119.484375 C 36.496094 111.078125 31.933594 101.21875 29.78125 91.039062 C 27.839844 81.832031 28.109375 72.023438 29.988281 62.804688 C 32.101562 52.441406 36.324219 42.3125 42.191406 33.53125 C 46.699219 26.78125 52.765625 21.003906 59.359375 16.296875 C 65.289062 12.0625 72.113281 9.082031 79.007812 6.746094 C 84.609375 4.851562 90.484375 3.53125 96.382812 3.21875 C 103.714844 2.828125 111.144531 3.695312 118.308594 5.292969 C 124.3125 6.632812 130.246094 8.636719 135.683594 11.523438 C 142.09375 14.925781 153.265625 24.394531 153.265625 24.394531 C 153.265625 24.394531 130.617188 22.222656 119.550781 24.1875 C 106.511719 26.503906 93.636719 31.195312 82.320312 38.097656 C 73.894531 43.238281 66.460938 50.226562 60.394531 58.027344 C 55.535156 64.277344 51.667969 71.460938 49.226562 79 C 46.75 86.640625 45.441406 94.855469 45.914062 102.875 C 46.238281 108.304688 47.65625 113.777344 50.050781 118.65625 C 52.441406 123.523438 55.921875 127.945312 59.980469 131.527344 C 65.203125 136.136719 71.417969 139.796875 77.976562 142.117188 C 83.300781 144 89.085938 144.679688 94.730469 144.609375 C 99.558594 144.546875 104.703125 144.324219 109 142.117188 C 112.605469 140.265625 116.457031 137.472656 117.6875 133.605469 C 118.691406 130.453125 118.082031 126.34375 115.929688 123.84375 C 113.804688 121.378906 109.9375 120.730469 106.6875 120.730469 C 104.300781 120.730469 101.625 121.363281 99.898438 123.015625 C 98.9375 123.9375 98.441406 125.121094 98.792969 126.410156 C 99.191406 127.871094 102.019531 129.554688 102.019531 129.554688 Z M 102.023438 129.550781 "/>
<path style=" stroke:none;fill-rule:nonzero;fill:rgb(0%,20%,50.196078%);fill-opacity:1;" d="M 95.242188 155.171875 C 93.589844 155.171875 92.128906 155.46875 90.863281 156.066406 C 89.914062 156.507812 89.042969 157.1875 88.242188 158.101562 C 87.445312 159.015625 86.8125 160.046875 86.351562 161.195312 C 85.730469 162.757812 85.417969 164.6875 85.417969 166.988281 C 85.417969 170.582031 86.3125 173.40625 88.09375 175.453125 C 89.878906 177.5 92.285156 178.527344 95.304688 178.527344 C 98.289062 178.527344 100.671875 177.492188 102.453125 175.433594 C 104.234375 173.375 105.128906 170.523438 105.128906 166.878906 C 105.128906 163.203125 104.230469 160.335938 102.433594 158.273438 C 100.636719 156.207031 98.238281 155.171875 95.242188 155.171875 Z M 186.703125 155.171875 C 185.050781 155.171875 183.589844 155.46875 182.324219 156.066406 C 181.375 156.507812 180.496094 157.1875 179.699219 158.101562 C 178.898438 159.015625 178.273438 160.046875 177.8125 161.195312 C 177.191406 162.757812 176.882812 164.6875 176.882812 166.988281 C 176.882812 170.582031 177.773438 173.40625 179.554688 175.453125 C 181.339844 177.5 183.738281 178.527344 186.757812 178.527344 C 189.742188 178.527344 192.125 177.492188 193.910156 175.433594 C 195.691406 173.375 196.582031 170.523438 196.582031 166.878906 C 196.582031 163.203125 195.683594 160.335938 193.886719 158.273438 C 192.089844 156.207031 189.699219 155.171875 186.703125 155.171875 Z M 2.667969 155.558594 L 2.667969 178.136719 L 6.769531 178.136719 L 6.769531 171.316406 L 10.09375 167.539062 L 15.675781 178.136719 L 20.984375 178.136719 L 12.917969 164.351562 L 20.570312 155.558594 L 15.050781 155.558594 L 6.769531 165.585938 L 6.769531 155.558594 Z M 23.117188 155.558594 L 23.117188 178.136719 L 38.570312 178.136719 L 38.570312 174.335938 L 27.21875 174.335938 L 27.21875 168.1875 L 37.421875 168.1875 L 37.421875 164.386719 L 27.21875 164.386719 L 27.21875 159.375 L 38.179688 159.375 L 38.179688 155.558594 Z M 42.015625 155.558594 L 42.015625 178.136719 L 45.832031 178.136719 L 45.832031 160.363281 L 49.851562 178.136719 L 53.796875 178.136719 L 57.828125 160.363281 L 57.828125 178.136719 L 61.644531 178.136719 L 61.644531 155.558594 L 55.488281 155.558594 L 51.847656 170.960938 L 48.160156 155.558594 Z M 65.800781 155.558594 L 65.800781 178.136719 L 69.898438 178.136719 L 69.898438 171.316406 L 73.226562 167.539062 L 78.8125 178.136719 L 84.117188 178.136719 L 76.050781 164.351562 L 83.703125 155.558594 L 78.1875 155.558594 L 69.898438 165.585938 L 69.898438 155.558594 Z M 108.257812 155.558594 L 108.257812 178.136719 L 112.066406 178.136719 L 112.066406 160.363281 L 116.085938 178.136719 L 120.035156 178.136719 L 124.070312 160.363281 L 124.070312 178.136719 L 127.878906 178.136719 L 127.878906 155.558594 L 121.726562 155.558594 L 118.082031 170.960938 L 114.394531 155.558594 Z M 131.855469 155.558594 L 131.855469 178.136719 L 135.957031 178.136719 L 135.957031 155.558594 Z M 139.894531 155.558594 L 139.894531 178.136719 L 143.703125 178.136719 L 143.703125 163.410156 L 151.898438 178.136719 L 156.011719 178.136719 L 156.011719 155.558594 L 152.203125 155.558594 L 152.203125 170.632812 L 143.886719 155.558594 Z M 160.390625 155.558594 L 160.390625 178.136719 L 164.492188 178.136719 L 164.492188 168.542969 L 172.972656 168.542969 L 172.972656 164.726562 L 164.492188 164.726562 L 164.492188 159.375 L 174.316406 159.375 L 174.316406 155.558594 Z M 95.289062 159.070312 C 96.980469 159.070312 98.335938 159.703125 99.359375 160.976562 C 100.378906 162.25 100.886719 164.183594 100.886719 166.769531 C 100.886719 169.390625 100.363281 171.355469 99.316406 172.664062 C 98.269531 173.976562 96.925781 174.628906 95.289062 174.628906 C 93.65625 174.628906 92.308594 173.964844 91.246094 172.644531 C 90.183594 171.324219 89.648438 169.390625 89.648438 166.832031 C 89.648438 164.234375 90.164062 162.292969 91.195312 161.003906 C 92.230469 159.71875 93.601562 159.070312 95.289062 159.070312 Z M 186.746094 159.070312 C 188.4375 159.070312 189.792969 159.703125 190.8125 160.976562 C 191.832031 162.25 192.347656 164.183594 192.347656 166.769531 C 192.347656 169.390625 191.820312 171.355469 190.773438 172.664062 C 189.722656 173.976562 188.382812 174.628906 186.746094 174.628906 C 185.109375 174.628906 183.761719 173.964844 182.699219 172.644531 C 181.636719 171.324219 181.105469 169.390625 181.105469 166.832031 C 181.105469 164.234375 181.625 162.292969 182.660156 161.003906 C 183.695312 159.71875 185.054688 159.070312 186.746094 159.070312 Z M 186.746094 159.070312 "/>
</g>
</svg>
